Coordinates
version=1
nRows=21
nColumns=12
inDegrees=yes

Units are S.I. units (second, meters, Newtons, ...)
Angles are in degrees

endheader
time	SC_y	SC_z	SC_x	AC_y	AC_z	AC_x	GH_y	GH_z	GH_yy	EL_x	PS_y
       0.0              -21.65          37.68          21.68          30.27          -6.18          16.24         -122.0          56.57          139.7          12.74          114.8
    0.0261              -21.64          37.68          21.68          30.27         -6.181          16.24         -121.9          56.56          139.7          12.75          114.8
    0.0522              -21.64          37.67          21.68          30.28         -6.183          16.23         -121.9          56.55          139.7          12.76          114.8
   0.07831              -21.64          37.67          21.68          30.28         -6.185          16.23         -121.8          56.54          139.7          12.78          114.8
    0.1044              -21.64          37.66          21.68          30.28         -6.187          16.22         -121.8          56.53          139.7          12.79          114.8
    0.1305              -21.64          37.66          21.68          30.29         -6.189          16.21         -121.7          56.52          139.7           12.8          114.8
    0.1566              -21.64          37.65          21.68          30.29         -6.192          16.21         -121.7           56.5          139.7          12.82          114.8
    0.1827              -21.64          37.65          21.68          30.29         -6.194           16.2         -121.6          56.49          139.7          12.84          114.7
    0.2088              -21.64          37.64          21.68           30.3         -6.197          16.19         -121.6          56.47          139.7          12.85          114.7
    0.2349              -21.64          37.63          21.68           30.3           -6.2          16.18         -121.5          56.46          139.7          12.87          114.7
     0.261              -21.64          37.62          21.68          30.31         -6.203          16.18         -121.4          56.44          139.7          12.89          114.7
    0.2871              -21.64          37.61          21.68          30.31         -6.206          16.17         -121.4          56.42          139.7          12.91          114.7
    0.3132              -21.64           37.6          21.68          30.32          -6.21          16.16         -121.3           56.4          139.7          12.94          114.7
    0.3393              -21.64          37.59          21.68          30.32         -6.213          16.15         -121.2          56.38          139.7          12.96          114.6
    0.3654              -21.64          37.58          21.68          30.33         -6.218          16.13         -121.1          56.36          139.7          12.99          114.6
    0.3915              -21.64          37.57          21.68          30.34         -6.222          16.12         -121.0          56.33          139.7          13.02          114.6
    0.4176              -21.64          37.56          21.68          30.35         -6.227          16.11         -120.9           56.3          139.7          13.05          114.6
    0.4437              -21.64          37.54          21.68          30.35         -6.232          16.09         -120.8          56.27          139.7          13.08          114.5
    0.4698              -21.63          37.53          21.68          30.36         -6.238          16.08         -120.6          56.24          139.7          13.12          114.5
    0.4959              -21.63          37.51          21.68          30.37         -6.245          16.06         -120.5           56.2          139.7          13.16          114.5
     0.522              -21.63          37.49          21.68          30.38         -6.252          16.04         -120.3          56.16          139.7          13.21          114.4
